# Blender 4.3.0 Alpha
# www.blender.org
mtllib house-1.mtl
o Plane
v 13.147177 13.147177 0.000000
v -13.147177 13.147177 0.000000
v 13.147177 -13.147177 0.000000
v -13.147177 -13.147177 0.000000
v 12.696001 -12.696001 0.000000
v 12.696001 12.696001 0.000000
v -12.696001 12.696001 0.000000
v -12.696001 -12.696001 0.000000
v -12.696001 2.161210 0.000000
v -13.147177 2.172939 0.000000
v -12.696001 -2.189713 0.000000
v -13.147177 -2.196736 0.000000
v 12.696001 -12.696001 12.613035
v 12.696001 12.696001 12.613035
v -12.696001 12.696001 12.613035
v -12.696001 -2.189713 12.613035
v -12.696001 -12.696001 12.613035
v 13.147177 -13.147177 12.613035
v 13.147177 13.147177 12.613035
v -13.147177 13.147177 12.613035
v -13.147177 -2.196736 12.613035
v -13.147177 -13.147177 12.613035
v -12.696001 2.161210 12.613035
v -13.147177 2.172939 12.613035
vn -0.0000 -0.0000 1.0000
vn -0.0000 -0.0000 -1.0000
vn -0.0260 -0.9997 -0.0000
vn 1.0000 -0.0000 -0.0000
vn -0.0000 -1.0000 -0.0000
vn -0.0000 1.0000 -0.0000
vn -1.0000 -0.0000 -0.0000
vn -0.0156 0.9999 -0.0000
vt 0.043128 0.299504
vt 0.038572 0.038572
vt 0.043128 0.043128
vt 0.038572 0.381204
vt 0.299504 0.385760
vt 0.043128 0.385760
vt 0.038572 0.646691
vt 0.043128 0.642136
vt 0.299504 0.642136
vt 0.193496 0.646691
vt 0.193425 0.642136
vt 0.304060 0.381204
vt 0.149376 0.646691
vt 0.149495 0.642136
vt 0.299504 0.299504
vt 0.038572 0.304060
vt 0.299504 0.043128
vt 0.193496 0.038572
vt 0.304060 0.038572
vt 0.304060 0.304060
vt 0.149376 0.038572
vt 0.222084 0.851187
vt 0.226640 0.723836
vt 0.226640 0.851187
vt 0.508555 0.304060
vt 0.381204 0.038572
vt 0.508555 0.038572
vt 0.917545 0.628457
vt 0.790195 0.372090
vt 0.917545 0.372090
vt 0.508555 0.646688
vt 0.381204 0.381204
vt 0.508555 0.381204
vt 0.038572 0.851187
vt 0.144939 0.723836
vt 0.144939 0.851187
vt 0.773648 0.842076
vt 0.879727 0.714725
vt 0.879727 0.842076
vt 0.381204 0.851183
vt 0.491768 0.723833
vt 0.491768 0.851183
vt 0.585699 0.842076
vt 0.696503 0.714725
vt 0.696503 0.842076
vt 0.917545 0.294945
vt 0.790195 0.038572
vt 0.917545 0.038572
vt 0.956872 0.842076
vt 0.961428 0.714725
vt 0.961428 0.842076
vt 0.713050 0.637581
vt 0.585699 0.381204
vt 0.713050 0.381204
vt 0.713050 0.304050
vt 0.585699 0.038572
vt 0.713050 0.038572
vt 0.304060 0.646692
vt 0.193425 0.043128
vt 0.149495 0.043128
vt 0.222084 0.723836
vt 0.381204 0.304060
vt 0.790195 0.628457
vt 0.381204 0.646688
vt 0.038572 0.723836
vt 0.773648 0.714725
vt 0.381204 0.723833
vt 0.585699 0.714725
vt 0.790195 0.294945
vt 0.956872 0.714725
vt 0.585699 0.637581
vt 0.585699 0.304050
s 0
usemtl Material.001
f 14/1/1 20/2/1 15/3/1
f 1/4/2 5/5/2 6/6/2
f 2/7/2 6/6/2 7/8/2
f 8/9/2 12/10/2 11/11/2
f 3/12/2 8/9/2 5/5/2
f 10/13/2 7/8/2 9/14/2
f 13/15/1 19/16/1 14/1/1
f 17/17/1 21/18/1 22/19/1
f 17/17/1 18/20/1 13/15/1
f 24/21/1 15/3/1 20/2/1
f 9/22/3 24/23/3 10/24/3
f 1/25/4 18/26/4 3/27/4
f 6/28/5 15/29/5 7/30/5
f 2/31/6 19/32/6 1/33/6
f 7/34/4 23/35/4 9/36/4
f 11/37/4 17/38/4 8/39/4
f 4/40/7 21/41/7 12/42/7
f 10/43/7 20/44/7 2/45/7
f 8/46/6 13/47/6 5/48/6
f 12/49/8 16/50/8 11/51/8
f 5/52/7 14/53/7 6/54/7
f 3/55/5 22/56/5 4/57/5
f 14/1/1 19/16/1 20/2/1
f 1/4/2 3/12/2 5/5/2
f 2/7/2 1/4/2 6/6/2
f 8/9/2 4/58/2 12/10/2
f 3/12/2 4/58/2 8/9/2
f 10/13/2 2/7/2 7/8/2
f 13/15/1 18/20/1 19/16/1
f 17/17/1 16/59/1 21/18/1
f 17/17/1 22/19/1 18/20/1
f 24/21/1 23/60/1 15/3/1
f 9/22/3 23/61/3 24/23/3
f 1/25/4 19/62/4 18/26/4
f 6/28/5 14/63/5 15/29/5
f 2/31/6 20/64/6 19/32/6
f 7/34/4 15/65/4 23/35/4
f 11/37/4 16/66/4 17/38/4
f 4/40/7 22/67/7 21/41/7
f 10/43/7 24/68/7 20/44/7
f 8/46/6 17/69/6 13/47/6
f 12/49/8 21/70/8 16/50/8
f 5/52/7 13/71/7 14/53/7
f 3/55/5 18/72/5 22/56/5
